<?xml version="1.0" standalone="no"?>
<!DOCTYPE svg PUBLIC "-//W3C//DTD SVG 20010904//EN"
 "http://www.w3.org/TR/2001/REC-SVG-20010904/DTD/svg10.dtd">
<svg version="1.0" xmlns="http://www.w3.org/2000/svg"
 width="600.000000pt" height="250.000000pt" viewBox="0 0 600.000000 250.000000"
 preserveAspectRatio="xMidYMid meet">

<g transform="translate(0.000000,250.000000) scale(0.100000,-0.100000)"
fill="#000000" stroke="none">
<path d="M1703 1990 c-94 -13 -222 -77 -207 -102 4 -6 3 -8 -3 -5 -14 9 -76
-70 -67 -85 4 -6 3 -8 -3 -5 -17 11 -36 -96 -31 -175 4 -58 11 -86 35 -128 17
-30 36 -54 42 -52 7 1 10 -2 7 -7 -4 -5 13 -26 37 -46 55 -46 177 -115 157
-89 -9 11 -4 9 12 -5 16 -14 32 -20 40 -15 7 4 10 3 5 -1 -9 -11 153 -96 167
-88 6 3 8 2 3 -2 -9 -11 43 -66 55 -59 5 3 8 2 7 -3 -3 -20 2 -34 11 -28 6 4
7 -1 3 -11 -3 -10 -2 -15 3 -12 16 10 0 -145 -18 -178 -10 -17 -15 -34 -13
-38 3 -3 2 -4 -2 -1 -9 7 -44 -26 -37 -36 3 -5 -3 -6 -12 -2 -10 4 -15 2 -11
-3 3 -5 -2 -10 -11 -11 -9 -1 -35 -6 -57 -12 -72 -19 -167 -13 -247 15 -40 14
-81 27 -90 27 -9 1 -15 4 -12 8 4 7 -29 24 -33 17 -1 -2 -8 5 -16 16 -32 43
-75 -12 -61 -79 9 -41 43 -87 60 -81 7 3 17 0 21 -7 16 -25 91 -49 202 -65 81
-12 115 -14 118 -6 2 6 15 9 28 6 30 -5 125 17 125 29 0 5 3 8 8 8 21 -4 41 3
62 21 13 11 26 20 31 20 15 0 91 88 116 136 22 40 28 66 31 140 5 105 -5 145
-54 220 -37 56 -117 119 -136 108 -8 -4 -9 -3 -5 2 5 5 -64 45 -159 91 -92 46
-163 83 -158 83 5 0 2 4 -6 10 -9 6 -17 5 -22 -3 -4 -7 -7 -4 -6 8 1 11 -9 35
-22 53 -19 25 -24 44 -23 89 0 71 6 112 14 107 8 -4 23 26 20 39 -1 5 3 6 8 2
6 -3 19 2 29 12 25 24 33 26 126 31 79 4 119 -3 193 -35 21 -9 41 -16 46 -15
4 1 7 -2 7 -7 0 -5 14 -14 31 -21 39 -16 49 -4 49 59 0 30 -6 48 -17 58 -12 9
-13 12 -3 8 8 -4 2 5 -13 19 -16 15 -33 24 -38 21 -5 -4 -9 -3 -9 2 0 13 -59
36 -76 29 -8 -3 -13 -2 -10 3 12 19 -136 33 -221 21z m-176 -95 c0 -8 -4 -12
-9 -9 -5 3 -6 10 -3 15 9 13 12 11 12 -6z m457 -1013 c3 -5 -1 -9 -9 -9 -8 0
-12 4 -9 9 3 4 7 8 9 8 2 0 6 -4 9 -8z"/>
<path d="M2852 1989 c-196 -25 -341 -127 -421 -294 -61 -126 -76 -204 -76
-390 0 -186 17 -278 71 -393 34 -71 117 -172 142 -172 7 0 12 -5 12 -11 0 -6
7 -8 16 -5 8 3 12 2 9 -4 -7 -11 82 -53 95 -45 5 3 10 0 12 -6 2 -6 48 -17
103 -25 116 -18 239 -8 341 26 68 23 190 101 187 119 -2 6 1 10 6 8 13 -3 69
71 102 135 58 114 74 203 74 407 0 134 -3 185 -12 188 -7 3 -10 10 -7 18 14
34 -77 251 -101 242 -8 -4 -11 1 -8 11 4 19 -72 91 -134 127 -34 20 -35 20
-49 1 -8 -11 -14 -15 -14 -10 0 6 5 15 11 21 15 15 -67 41 -172 53 -93 11 -98
11 -187 -1z m225 -154 c32 -9 63 -21 70 -27 7 -5 18 -6 24 -2 7 4 9 3 6 -3 -4
-5 8 -23 26 -39 18 -16 44 -46 58 -66 14 -21 29 -35 34 -30 5 4 5 2 1 -5 -3
-6 2 -33 13 -60 59 -151 50 -463 -19 -605 -11 -22 -17 -44 -15 -49 3 -4 0 -11
-6 -15 -8 -5 -10 -2 -5 7 4 8 -1 3 -11 -11 -10 -14 -29 -36 -43 -50 -13 -14
-24 -29 -22 -33 1 -5 -2 -6 -8 -2 -5 3 -10 1 -10 -4 0 -6 -3 -10 -7 -9 -5 1
-26 -6 -48 -16 -82 -36 -190 -45 -287 -25 -205 43 -311 250 -294 574 12 222
71 350 203 436 18 12 21 18 11 23 -7 3 -3 3 9 1 12 -3 24 -1 28 5 3 6 10 8 15
5 5 -3 11 -2 13 2 11 17 205 15 264 -2z m-540 -24 c0 -11 -5 -18 -9 -15 -4 3
-5 11 -1 19 7 21 12 19 10 -4z"/>
<path d="M942 1967 c-8 -9 -13 -186 -16 -558 -4 -513 -5 -583 -14 -575 -2 2
-14 -7 -27 -20 -35 -34 -131 -34 -196 0 -57 31 -69 22 -69 -51 0 -45 4 -58 26
-78 46 -43 200 -60 283 -30 63 22 105 59 137 122 l29 58 3 564 c2 451 0 566
-10 573 -22 13 -134 9 -146 -5z"/>
<path d="M3849 1965 c-17 -9 -29 -26 -33 -46 -3 -17 -6 -303 -6 -635 0 -688
-8 -634 89 -634 100 0 93 -45 89 583 -2 419 0 544 9 544 7 0 10 -4 7 -8 -7
-13 159 -328 169 -322 6 3 7 1 3 -5 -9 -15 38 -95 49 -85 4 5 5 3 1 -4 -9 -16
35 -104 48 -96 6 3 8 3 4 -2 -8 -8 102 -226 127 -255 8 -8 15 -19 16 -25 6
-29 34 -73 42 -68 6 3 7 1 3 -5 -8 -14 30 -92 46 -92 6 0 9 -3 5 -6 -13 -14
68 -138 83 -129 5 3 10 0 12 -7 3 -7 31 -14 74 -16 59 -3 73 -1 97 18 l27 21
0 634 c0 720 9 655 -87 655 -89 -1 -82 43 -85 -556 l-3 -529 -44 88 c-24 48
-47 87 -53 87 -5 0 -6 5 -3 10 3 6 1 10 -4 10 -6 0 -10 3 -10 8 3 20 -2 32
-13 26 -7 -4 -8 -3 -4 4 8 14 -74 173 -86 166 -4 -3 -6 1 -3 8 3 7 -21 61 -53
119 -32 59 -74 136 -93 172 -18 36 -38 63 -43 60 -5 -3 -6 -1 -2 5 8 13 -14
63 -25 56 -5 -3 -6 3 -2 12 5 13 3 15 -7 9 -8 -5 -11 -4 -6 3 3 6 -10 37 -29
69 -19 32 -35 63 -35 68 0 24 -63 85 -98 95 -52 14 -142 12 -173 -5z m305
-353 c3 -5 -1 -9 -9 -9 -8 0 -12 4 -9 9 3 4 7 8 9 8 2 0 6 -4 9 -8z m481 -893
c-6 -30 -9 -31 -24 -7 -7 11 -8 17 -2 14 5 -4 12 -2 16 4 10 16 14 12 10 -11z"/>
</g>
</svg>
